PathFileType	4	(X/Y/Z)	C:/Users/beibeiliu/ov580/test_trc/User3\sequence.32_training_dense_right.trc
DataRate	CameraRate	NumFrames	NumMarkers	Units	OrigDataRate	OrigDataStartFrame	OrigNumFrames
120	120	24	19	mm	120	157	209
Frame#	Time	ThumbCMC			ThumbMCP			ThumbIP			ThumbTip			IndexMCP			IndexPIP			IndexTip			MiddleMCP			MiddlePIP			MiddleTip			RingMCP			RingPIP			RingTip			PinkyMCP			PinkyPIP			PinkyTip			BackHand1			BackHand2			BackHand3	
		X0	Y0	Z0	X1	Y1	Z1	X2	Y2	Z2	X3	Y3	Z3	X4	Y4	Z4	X5	Y5	Z5	X6	Y6	Z6	X7	Y7	Z7	X8	Y8	Z8	X9	Y9	Z9	X10	Y10	Z10	X11	Y11	Z11	X12	Y12	Z12	X13	Y13	Z13	X14	Y14	Z14	X15	Y15	Z15	X16	Y16	Z16	X17	Y17	Z17	X18	Y18	Z18	
156	1.3	247.447	-22.1474	11.3795	242.031	-20.0005	-22.0163	238.692	-28.0258	-52.945	229.405	-44.4568	-70.0139	280.185	-66.4809	-41.277	264.251	-55.4781	-69.4909	242.997	-37.1251	-59.744	271.966	-89.9116	-39.9539	266.566	-82.142	-70.0564	231.115	-57.6281	-67.3481	259.663	-100.501	-32.2997	258.218	-103.544	-62.3919	245.57	-93.2515	-86.8018	234.378	-106.77	-16.1111	242.171	-116.045	-37.5169	241.674	-122.539	-65.3917	244.556	-87.0654	18.2423	230.848	-73.5624	44.2974	260.396	-57.9807	30.3361	
157	1.30833	242.683	-16.8801	12.4784	241.116	-20.2093	-26.5903	238.845	-27.4838	-56.523	229.789	-47.4737	-70.0674	280.322	-61.9747	-36.6143	269.703	-52.5759	-68.8135	241.387	-34.9415	-60.9635	277.263	-83.2346	-40.8943	263.229	-78.7797	-70.447	230.855	-57.7094	-68.293	260.423	-98.673	-29.0048	264.339	-101.63	-57.3173	248.743	-96.0558	-84.3637	240.689	-105.814	-14.6181	248.97	-113.781	-35.8885	248.191	-119.607	-60.1192	246.35	-82.1669	24.3741	235.019	-71.4564	47.7997	261.399	-49.336	29.6841	
158	1.31667	239.536	-16.6643	7.96854	234.684	-13.6513	-24.3908	234.031	-23.4236	-55.3198	228.744	-42.2333	-74.8865	280.79	-56.3191	-39.9227	271.668	-48.8112	-69.4707	238.954	-36.6697	-69.2539	276.477	-77.8238	-38.4699	267.049	-74.9756	-71.0713	231.416	-58.5016	-74.0533	265.287	-91.3787	-29.3499	267.595	-94.9336	-57.3572	252.63	-87.2394	-87.337	244.729	-103.307	-14.9528	253.979	-110.122	-38.815	250.384	-118.009	-61.5063	250.991	-80.2875	19.4076	236.132	-68.405	43.3325	260.088	-43.6646	27.4936	
159	1.325	232.645	-10.6288	10.3052	228.441	-14.7211	-24.3702	226.727	-16.9845	-52.5611	223.763	-35.357	-76.3353	278.35	-46.8219	-42.9169	270.23	-45.6974	-71.2519	238.975	-32.8566	-80.1433	275.607	-69.4469	-39.0556	264.108	-70.3129	-75.8376	234.526	-58.0013	-83.8498	265.3	-82.5294	-30.8209	268.014	-89.4131	-61.9993	252.103	-86.4418	-86.4526	245.534	-95.0912	-16.5572	252.781	-108.824	-40.048	252.771	-110.311	-64.6814	247.926	-75.4585	20.4956	234.709	-69.9787	42.1372	257.329	-44.1758	25.7439	
160	1.33333	228.287	-12.6792	5.82427	218.87	-5.19078	-26.7679	215.868	-6.26267	-56.8667	212.02	-22.3235	-80.6306	273.845	-40.0378	-46.1634	267.347	-41.5356	-75.7938	238.003	-34.9309	-93.9105	274.334	-62.9395	-47.2758	266.81	-63.7176	-80.2257	238.312	-58.7544	-95.8554	265.719	-79.3039	-37.3433	267.235	-83.7194	-65.2033	249.753	-82.4433	-91.9711	244.325	-95.2952	-21.281	250.561	-103.59	-40.674	247.544	-111.711	-64.6578	248.177	-69.4244	17.1794	236.219	-67.695	38.7685	254.051	-35.1213	22.806	
161	1.34167	221.697	-7.33351	5.94495	209.939	-3.84987	-28.794	204.423	-4.15242	-59.9356	197.177	-11.2856	-77.7386	267.701	-36.3623	-49.6699	263.115	-39.725	-80.8445	240.207	-35.7107	-104.116	269.389	-59.3861	-51.5479	264.697	-67.0716	-79.5751	241.932	-59.2025	-107.219	259.284	-77.1735	-39.6888	263.139	-83.8836	-68.4545	251.505	-84.8017	-92.9142	240.67	-92.76	-25.0511	243.944	-107.315	-42.8777	242.035	-115.946	-66.5426	248.555	-65.3357	9.45142	235.472	-62.1241	39.7412	251.912	-32.3197	19.9069	
162	1.35	218.316	-6.82798	2.47045	202.135	-0.206145	-27.8762	193.276	0.155018	-54.8666	183.793	-4.9337	-75.1657	258.36	-35.0526	-52.916	257.455	-37.4402	-83.7562	244.661	-32.1705	-107.61	261.105	-60.7935	-55.0691	260.404	-64.3729	-84.8784	239.005	-63.4198	-116.643	253.335	-74.599	-44.2563	258.404	-82.2732	-69.9699	246.193	-85.3889	-99.7489	231.983	-93.6676	-23.3621	238.633	-106.427	-44.9008	236.051	-116.919	-68.8516	242.896	-68.7782	4.47231	234.484	-64.4023	35.0187	248.054	-30.8274	11.0216	
163	1.35833	212.284	-3.49285	3.68163	195.48	-1.34419	-28.5502	183.219	0.496662	-54.8618	172.141	0.811851	-73.4724	251.268	-31.0188	-62.316	249.172	-33.4628	-87.7423	238.734	-34.3725	-115.599	253.343	-58.5469	-56.7655	251.809	-68.58	-86.513	238.908	-66.0879	-116.876	244.745	-77.6598	-45.6786	248.713	-87.9182	-71.4741	242.07	-92.7141	-97.229	225.693	-92.7714	-27.1254	230.695	-106.336	-45.4622	230.667	-121.25	-67.9015	238.447	-65.3999	3.18757	232.893	-63.5696	30.4615	241.453	-31.4083	11.6933	
164	1.36667	207.51	-7.4303	2.92956	188.04	-1.0935	-25.3148	175.171	3.32853	-53.4582	163.534	3.43696	-67.702	241.697	-35.3133	-61.6641	240.642	-30.7416	-92.3823	234.884	-31.0982	-113.932	244.061	-60.8011	-60.9398	243.684	-67.4521	-89.5636	232.489	-72.6516	-121.593	235.735	-78.858	-47.5717	239.396	-89.4216	-72.0476	235.376	-96.6569	-100.204	216.837	-93.5168	-25.8076	218.731	-111.595	-41.4256	220.464	-125.891	-65.6559	232.04	-69.0029	1.62937	226.554	-64.5399	32.7278	236.337	-33.0752	9.49794	
165	1.375	204.684	-7.98419	5.18189	182.781	-0.951679	-23.4325	168.466	6.66563	-52.0421	156.131	5.64291	-67.924	233.095	-32.7066	-62.0693	233.089	-31.5694	-92.9332	229.216	-29.9452	-114.338	233.236	-66.5716	-57.4226	234.544	-73.36	-90.5798	227.59	-78.4524	-120.571	225.631	-82.8114	-46.2408	231.28	-88.6064	-69.9984	226.651	-101.811	-97.8708	209.863	-93.9992	-30.1473	210.201	-109.108	-42.315	207.752	-128.808	-61.86	225.877	-67.1884	2.74475	222.215	-66.7425	28.7713	232.497	-35.31	6.61916	
166	1.38333	201.968	-8.78906	1.34263	180.061	-1.86469	-22.8731	165.474	8.67721	-43.6623	153.153	8.64625	-61.2686	225.903	-37.2322	-63.4964	225.153	-33.5769	-92.6879	222.966	-29.9988	-115.261	229.123	-64.3863	-61.2831	230.151	-70.1648	-90.1285	224.405	-75.9426	-123.127	218.461	-81.7405	-45.4256	221.553	-95.0717	-70.7208	218.691	-102.949	-96.0253	199.85	-91.0319	-26.1284	197.907	-112.03	-41.0512	194	-123.511	-61.3068	219.921	-67.5849	-2.27068	218.809	-66.3564	26.6829	231.018	-36.4636	5.34414	
167	1.39167	200.389	-5.21722	4.18299	178.327	-0.501204	-19.0455	161.647	8.66531	-46.9542	147.987	10.1257	-58.3876	222.724	-32.1967	-64.4421	220.995	-30.4084	-88.8985	216.367	-31.5066	-117.33	224.494	-62.6903	-60.1419	224.828	-70.5644	-86.5673	221.357	-78.9797	-120.551	212.284	-82.1752	-45.0447	215.869	-93.8044	-72.4885	208.602	-104.424	-95.467	192.211	-94.8001	-25.7769	187.962	-109.11	-43.1095	176.188	-122.775	-61.3454	215.807	-69.3218	-2.18245	217.992	-67.5201	28.9865	228.896	-39.0581	4.61107	
168	1.4	199.335	-3.47899	6.30126	175.6	-2.66232	-18.7753	160.233	6.13023	-40.2616	146.414	10.0704	-57.2195	218.775	-32.0627	-61.6489	216.162	-32.0935	-92.2253	213.001	-29.7118	-114.883	221.222	-62.0101	-57.9614	223.354	-69.0423	-85.6909	219.024	-77.2015	-116.849	207.144	-83.6506	-45.5626	207.23	-96.2885	-74.2331	198.433	-101.326	-99.6821	184.596	-97.5151	-29.3531	175.396	-105.991	-47.8171	160.573	-116.996	-62.4283	215.165	-69.9068	-0.275155	217.867	-65.7235	25.2765	225.94	-38.6015	6.83017	
169	1.40833	200.181	-4.4328	6.20048	175.797	2.09536	-18.0397	159.412	9.06332	-38.7823	143.206	16.5254	-56.7644	217.366	-34.4729	-67.1701	215.724	-28.4193	-89.4104	212.029	-25.1926	-113.205	220.757	-60.8497	-58.4176	223.538	-67.7022	-89.9771	219.188	-74.4393	-119.825	203.663	-79.9069	-47.4225	199.623	-92.4372	-75.8239	185.372	-96.836	-100.505	179.156	-94.0895	-31.4643	166.392	-100.924	-44.7339	145.405	-101.83	-65.6866	214.822	-70.8695	-2.50012	216.677	-61.4563	29.0967	225.322	-36.7844	6.27356	
170	1.41667	199.379	-5.81453	2.97542	174.426	4.83931	-17.3836	156.593	12.6074	-41.919	141.865	12.0228	-54.1012	217.746	-32.0801	-62.9335	215.699	-28.2949	-88.6361	209.633	-24.5361	-118.681	219.037	-63.3742	-58.4938	221.961	-67.3505	-91.2337	214.754	-74.8307	-121.328	201.769	-77.151	-49.0584	194.174	-88.9607	-72.3335	172.628	-93.405	-96.9357	177.694	-89.6096	-31.0357	158.181	-94.31	-48.7219	133.3	-89.7365	-59.9149	212.553	-69.103	-3.08503	217.507	-62.4149	27.3906	224.985	-37.126	6.92083	
171	1.425	199.33	-1.51638	2.59077	175.026	2.07789	-15.9543	155.934	8.53012	-40.5751	139.422	9.54341	-55.3611	219.596	-30.3105	-63.9999	216.866	-27.4249	-91.307	208.579	-22.9386	-116.879	221.26	-62.2121	-60.5755	220.823	-70.2312	-89.5604	211.963	-74.2804	-120.847	199.474	-78.5288	-46.5074	188.138	-85.2629	-76.011	161.395	-86.0142	-93.535	176.92	-89.0398	-32.596	158.293	-90.9744	-45.4568	131.825	-76.5851	-56.2234	214.622	-65.4016	-1.12706	216.62	-62.7414	26.5808	228.491	-32.3447	6.03539	
172	1.43333	199.685	-3.05486	3.89356	174.463	3.30582	-16.6558	154.563	11.6976	-40.8616	137.553	3.48447	-57.5323	221.835	-28.0868	-60.666	218.629	-23.1965	-91.9959	206.937	-21.045	-117.88	223.666	-57.9403	-58.5177	222.675	-64.8177	-91.1092	206.027	-70.7575	-117.357	200.285	-75.8437	-49.7923	186.255	-83.746	-72.1307	158.691	-74.0708	-87.1879	177.216	-87.1156	-27.1983	154.205	-85.8633	-45.6856	135.736	-64.4131	-51.0308	215.089	-65.3604	-1.27484	217.687	-60.0656	27.2743	227.908	-35.2281	7.73346	
173	1.44167	200.582	-3.20396	6.57108	175.037	2.06535	-15.9229	154.84	8.485	-40.9371	135.714	-3.59762	-57.1386	223.908	-27.8445	-62.2956	220.391	-26.9089	-90.2247	203.806	-25.0987	-114.672	223.34	-61.0094	-56.3191	221.744	-65.4748	-88.4992	196.344	-66.6994	-115.23	199.879	-74.3836	-47.1845	182.734	-78.1929	-72.512	151.239	-66.3208	-78.0159	177.684	-84.9229	-27.4877	158.131	-81.2989	-45.763	136.422	-59.9089	-48.5979	214.807	-63.0573	2.24375	219.328	-60.3817	31.3157	229.55	-29.9666	6.4068	
174	1.45	201.033	-1.27673	7.8275	174.527	1.44201	-19.2032	155.626	3.4714	-38.1748	135.807	-11.3504	-54.9359	224.776	-29.5443	-60.9274	221.205	-26.2526	-89.9283	200.518	-24.1544	-114.173	221.541	-61.6202	-54.3179	217.584	-66.6858	-85.4219	188.119	-60.682	-110.847	199.099	-74.8013	-46.6313	175.022	-77.0738	-71.8188	146.789	-62.937	-69.1181	178.087	-83.3111	-29.6527	156.575	-79.6154	-44.5377	137.644	-55.6272	-44.0685	217.576	-64.8815	1.65021	217.346	-61.7995	32.7498	228.019	-31.6822	9.09851	
175	1.45833	200.61	-2.33807	6.41164	174.489	1.19015	-19.529	154.715	1.15004	-42.1374	140.134	-18.3504	-49.7755	223.854	-31.0079	-58.717	222.152	-27.7653	-90.4907	199.903	-20.6897	-113.097	219.979	-58.6628	-57.0898	208.575	-64.1114	-91.9294	176.537	-60.1766	-101.585	197.215	-75.4417	-49.1535	174.682	-75.281	-70.8429	149.729	-60.9684	-66.3459	176.962	-85.3119	-32.3167	156.835	-78.5296	-46.548	135.28	-61.0012	-44.3907	216.355	-67.1519	4.03563	217.407	-58.4773	31.8726	229.343	-34.2253	6.99409	
176	1.46667	200.938	-3.46804	7.45431	175.926	0.500285	-18.9552	154.704	-0.639123	-43.2688	141.588	-23.0753	-49.5801	223.639	-32.8531	-60.9589	222.708	-25.4664	-90.9358	204.325	-20.1606	-111.898	214.914	-61.3288	-61.8861	198.948	-62.4348	-90.8139	163.346	-54.3846	-94.543	197.824	-72.732	-51.8894	177.575	-74.8128	-70.8653	145.348	-58.8441	-64.8054	179.902	-85.3838	-30.7374	157.279	-86.4995	-43.9163	136.089	-68.6548	-46.0728	214.642	-66.7855	-1.60852	218.958	-60.4442	31.6492	226.928	-33.0321	6.35623	
177	1.475	201.301	-1.7195	8.20605	174.735	2.95877	-17.5005	156.044	-4.45194	-41.8681	136.914	-16.9069	-53.9074	224.133	-28.4977	-61.5879	220.38	-28.8606	-92.9636	205.699	-22.807	-114.001	209.516	-60.8051	-59.5118	189.41	-58.8132	-90.9604	151.934	-47.922	-89.8773	194.754	-77.0802	-47.9523	174.149	-78.7169	-70.1169	145.16	-61.8127	-69.1308	179.949	-88.0273	-26.4455	164.121	-90.7681	-45.7535	139.481	-74.5754	-54.1418	216.649	-65.0637	2.46165	219.411	-62.5957	31.5362	229.766	-32.5511	7.27057	
178	1.48333	201.601	-4.25902	8.57603	173.698	1.27677	-19.5187	153.801	4.44335	-41.1582	136.102	-9.12279	-55.5516	220.978	-28.6092	-59.3109	220.8	-28.1358	-90.3355	207.838	-23.2733	-116.84	205.773	-59.3881	-61.1757	186.8	-60.0293	-88.533	146.811	-47.0445	-88.4506	195.303	-74.6346	-51.8915	174.671	-81.1796	-70.1245	145.941	-68.6384	-74.6028	183.633	-86.1686	-26.8503	167.859	-95.743	-45.3332	143.517	-92.8282	-57.0133	214.706	-64.5245	-0.60537	219.395	-63.9377	28.2063	226.557	-35.3271	5.33131	
179	1.49167	199.973	-3.23148	5.03226	173.341	0.790108	-15.6854	154.35	4.61662	-34.7663	136.002	-1.71887	-52.1977	217.786	-31.6199	-65.1644	215.962	-23.9248	-91.5133	206.522	-26.8151	-113.471	204.276	-59.4267	-61.0432	183.985	-63.7026	-86.6227	148.211	-53.272	-92.6136	194.51	-77.3083	-49.3016	177.387	-79.1732	-74.4151	147.484	-72.3782	-82.921	182.846	-88.7879	-29.9321	170.632	-98.8695	-43.7275	147.08	-103.674	-59.0812	213.577	-66.1643	0.220545	218.177	-63.1242	29.6923	227.331	-33.601	4.89257	
